<svg xmlns="http://www.w3.org/2000/svg" xmlns:xlink="http://www.w3.org/1999/xlink" width="50" height="50" version="1.1" viewBox="0 0 50 50"><title>Group 5</title><desc>Created with Sketch.</desc><g id="Documentation-(Morgan)" fill="none" fill-rule="evenodd" stroke="none" stroke-width="1"><g id="Full-Docs-Page" transform="translate(-884.000000, -3206.000000)"><g id="Group-5" transform="translate(884.000000, 3206.000000)"><g id="Twitter_Logo_White_On_Blue-Copy" fill="#000"><g id="Twitter_Logo_White-on-Blue"><g id="Dark_Blue"><circle id="Oval-2" cx="25" cy="25" r="25"/></g></g></g><g id="Page-1" fill="#FFF" transform="translate(9.250000, 11.500000)"><path id="Fill-1" d="M31.5486748,4.9006881 C31.5423248,4.89585 31.5374867,4.8895 31.5302295,4.88587143 L31.5193438,4.88042857 L21.9731771,0.107345238 C21.9084676,0.0752928571 21.8407343,0.0532190476 21.7720938,0.0356809524 C21.6859152,0.0136071429 21.5982248,4.29709178e-15 21.5099295,4.29709178e-15 C21.144351,4.29709178e-15 20.7802843,0.183545238 20.5834343,0.503464286 L15.0873581,9.4345881 L21.9843652,20.6423381 L31.5777033,5.0530881 C31.6097557,5.00138095 31.5946367,4.93697381 31.5486748,4.9006881"/><polygon id="Fill-3" points="12.06 7.4 12.06 17.566 21.097 22.085"/><path id="Fill-5" d="M22.4544467,22.7634498 L29.8927157,26.4827355 C30.8606371,26.966545 31.6453157,26.6278783 31.6453157,25.725876 L31.6453157,7.82824976 L22.4544467,22.7634498 Z"/><path id="Fill-7" d="M10.4917421,4.91517214 L1.16843024,0.253365 C1.00000405,0.169303095 0.839742143,0.12938881 0.694599286,0.12938881 C0.286385,0.12938881 3.02380952e-05,0.445376905 3.02380952e-05,0.975450714 L3.02380952e-05,21.1049507 C3.02380952e-05,21.6437936 0.394335,22.2818174 0.876330238,22.522815 L9.08808976,26.6285436 C9.2985469,26.7337721 9.4987231,26.783665 9.68015167,26.783665 C10.1905707,26.783665 10.5482874,26.3887555 10.5482874,25.7259364 L10.5482874,5.00679357 C10.5482874,4.96808881 10.526516,4.93240786 10.4917421,4.91517214"/></g></g></g></g></svg>